<svg width="187" height="63" viewBox="0 0 187 63" fill="none" xmlns="http://www.w3.org/2000/svg">
<path d="M9.888 55C7.776 55 6.128 54.472 4.944 53.416C3.76 52.36 3.168 50.648 3.168 48.28V20.92H10.368V47.512C10.368 48.28 10.544 48.824 10.896 49.144C11.248 49.464 11.76 49.624 12.432 49.624H14.16V55H9.888ZM23.8331 55.576C21.1771 55.576 19.0011 54.968 17.3051 53.752C15.6411 52.504 14.8091 50.776 14.8091 48.568C14.8091 46.296 15.5131 44.552 16.9211 43.336C18.3611 42.088 20.4731 41.176 23.2571 40.6L31.5611 38.968C31.5611 37.304 31.1771 36.056 30.4091 35.224C29.6731 34.36 28.6011 33.928 27.1931 33.928C25.8171 33.928 24.7451 34.248 23.9771 34.888C23.2091 35.496 22.7131 36.408 22.4891 37.624L15.2411 37.288C15.7211 34.472 16.9851 32.344 19.0331 30.904C21.1131 29.432 23.8331 28.696 27.1931 28.696C31.0331 28.696 33.9131 29.608 35.8331 31.432C37.7851 33.256 38.7611 35.928 38.7611 39.448V48.232C38.7611 48.968 38.8731 49.464 39.0971 49.72C39.3531 49.944 39.7211 50.056 40.2011 50.056H40.9211V55C40.6971 55.064 40.3291 55.128 39.8171 55.192C39.3371 55.256 38.8571 55.288 38.3771 55.288C37.3531 55.288 36.3931 55.112 35.4971 54.76C34.6331 54.408 33.9291 53.816 33.3851 52.984C32.8411 52.12 32.5691 50.904 32.5691 49.336L33.1931 49.816C32.8731 50.968 32.2971 51.976 31.4651 52.84C30.6651 53.704 29.6091 54.376 28.2971 54.856C27.0171 55.336 25.5291 55.576 23.8331 55.576ZM25.5611 50.632C26.7451 50.632 27.7851 50.408 28.6811 49.96C29.5771 49.48 30.2811 48.792 30.7931 47.896C31.3051 47 31.5611 45.944 31.5611 44.728V43.48L25.7051 44.728C24.5531 44.952 23.6731 45.336 23.0651 45.88C22.4891 46.392 22.2011 47.064 22.2011 47.896C22.2011 48.76 22.4891 49.432 23.0651 49.912C23.6411 50.392 24.4731 50.632 25.5611 50.632ZM49.0324 55C46.9204 55 45.2724 54.472 44.0884 53.416C42.9044 52.36 42.3124 50.648 42.3124 48.28V20.92H49.5124V47.512C49.5124 48.28 49.6884 48.824 50.0404 49.144C50.3924 49.464 50.9044 49.624 51.5764 49.624H53.3044V55H49.0324ZM62.9775 55.576C60.3215 55.576 58.1455 54.968 56.4495 53.752C54.7855 52.504 53.9535 50.776 53.9535 48.568C53.9535 46.296 54.6575 44.552 56.0655 43.336C57.5055 42.088 59.6175 41.176 62.4015 40.6L70.7055 38.968C70.7055 37.304 70.3215 36.056 69.5535 35.224C68.8175 34.36 67.7455 33.928 66.3375 33.928C64.9615 33.928 63.8895 34.248 63.1215 34.888C62.3535 35.496 61.8575 36.408 61.6335 37.624L54.3855 37.288C54.8655 34.472 56.1295 32.344 58.1775 30.904C60.2575 29.432 62.9775 28.696 66.3375 28.696C70.1775 28.696 73.0575 29.608 74.9775 31.432C76.9295 33.256 77.9055 35.928 77.9055 39.448V48.232C77.9055 48.968 78.0175 49.464 78.2415 49.72C78.4975 49.944 78.8655 50.056 79.3455 50.056H80.0655V55C79.8415 55.064 79.4735 55.128 78.9615 55.192C78.4815 55.256 78.0015 55.288 77.5215 55.288C76.4975 55.288 75.5375 55.112 74.6415 54.76C73.7775 54.408 73.0735 53.816 72.5295 52.984C71.9855 52.12 71.7135 50.904 71.7135 49.336L72.3375 49.816C72.0175 50.968 71.4415 51.976 70.6095 52.84C69.8095 53.704 68.7535 54.376 67.4415 54.856C66.1615 55.336 64.6735 55.576 62.9775 55.576ZM64.7055 50.632C65.8895 50.632 66.9295 50.408 67.8255 49.96C68.7215 49.48 69.4255 48.792 69.9375 47.896C70.4495 47 70.7055 45.944 70.7055 44.728V43.48L64.8495 44.728C63.6975 44.952 62.8175 45.336 62.2095 45.88C61.6335 46.392 61.3455 47.064 61.3455 47.896C61.3455 48.76 61.6335 49.432 62.2095 49.912C62.7855 50.392 63.6175 50.632 64.7055 50.632ZM81.5505 55V20.92H88.7505V35.272H87.7905C88.0465 33.768 88.5425 32.536 89.2785 31.576C90.0465 30.616 90.9905 29.896 92.1105 29.416C93.2625 28.936 94.5105 28.696 95.8545 28.696C97.7745 28.696 99.3745 29.112 100.655 29.944C101.935 30.776 102.895 31.928 103.535 33.4C104.207 34.872 104.543 36.552 104.543 38.44V55H97.3425V40.168C97.3425 38.248 97.0385 36.808 96.4305 35.848C95.8545 34.888 94.8625 34.408 93.4545 34.408C91.9825 34.408 90.8305 34.904 89.9985 35.896C89.1665 36.888 88.7505 38.376 88.7505 40.36V55H81.5505ZM109.539 62.2V56.824H112.947C113.779 56.824 114.387 56.696 114.771 56.44C115.187 56.216 115.507 55.8 115.731 55.192L116.259 53.704H114.291L105.267 29.272H112.611L118.515 46.984L124.035 29.272H131.379L121.491 57.448C120.915 59.144 120.083 60.36 118.995 61.096C117.907 61.832 116.387 62.2 114.435 62.2H109.539ZM141.143 55.576C138.487 55.576 136.407 54.728 134.903 53.032C133.431 51.304 132.695 48.904 132.695 45.832V29.272H139.895V44.152C139.895 46.136 140.199 47.592 140.807 48.52C141.415 49.416 142.375 49.864 143.687 49.864C145.159 49.864 146.295 49.368 147.095 48.376C147.927 47.352 148.343 45.832 148.343 43.816V29.272H155.543V55H148.967L148.775 47.608L149.687 47.8C149.303 50.36 148.391 52.296 146.951 53.608C145.511 54.92 143.575 55.576 141.143 55.576ZM159.931 55V29.272H166.411L166.699 36.808L165.787 36.568C166.043 34.648 166.555 33.112 167.323 31.96C168.123 30.808 169.115 29.976 170.299 29.464C171.483 28.952 172.779 28.696 174.187 28.696C176.043 28.696 177.611 29.096 178.891 29.896C180.203 30.696 181.195 31.832 181.867 33.304C182.571 34.744 182.923 36.456 182.923 38.44V55H175.723V40.84C175.723 39.464 175.611 38.296 175.387 37.336C175.163 36.376 174.763 35.656 174.187 35.176C173.611 34.664 172.811 34.408 171.787 34.408C170.283 34.408 169.131 34.968 168.331 36.088C167.531 37.176 167.131 38.76 167.131 40.84V55H159.931Z" fill="#231F1A"/>
<path d="M123 23.6808L137.293 3.28075C137.944 2.34913 138.874 1.6495 139.95 1.28382C141.026 0.918135 142.19 0.905505 143.273 1.24777C144.357 1.59004 145.302 2.26931 145.973 3.18661C146.643 4.10391 147.003 5.2113 147 6.34742V10.3474C147 13.1764 145.876 15.8895 143.876 17.8899C141.875 19.8903 139.162 21.0141 136.333 21.0141H124.867M147 6.34742L149.667 7.01409L147 7.68075M133.667 21.0141V25.0141M139 20.6808V25.0141M129.667 21.0141C131.311 21.014 132.915 20.5073 134.261 19.563C135.607 18.6187 136.629 17.2827 137.189 15.7366C137.748 14.1906 137.818 12.5098 137.388 10.9228C136.958 9.33578 136.05 7.91977 134.787 6.86742" stroke="#231F1A" stroke-width="1.6" stroke-linecap="round" stroke-linejoin="round"/>
<circle cx="142.611" cy="5.98782" r="1.1" fill="#231F1A"/>
<path d="M153.2 24L156.2 17M153 15L150 22M161 15L158 22" stroke="#231F1A" stroke-width="1.4" stroke-linecap="round" stroke-linejoin="round"/>
<path d="M173 21.014V25.014M178 21.014L179.956 9.54599M164 11.014L171.82 5.39899C172.163 5.14869 172.576 5.01379 173 5.01379C173.424 5.01379 173.837 5.14869 174.18 5.39899L182 11.014M165 21.014H181M168 21.014L166.044 9.54599M175 13.014C175 14.1186 174.105 15.014 173 15.014C171.895 15.014 171 14.1186 171 13.014C171 11.9094 171.895 11.014 173 11.014C174.105 11.014 175 11.9094 175 13.014Z" stroke="#231F1A" stroke-width="1.6" stroke-linecap="round" stroke-linejoin="round"/>
</svg>
