<svg width="184" height="32" viewBox="0 0 184 32" fill="none" xmlns="http://www.w3.org/2000/svg">
<path d="M72.112 27C71.0027 27 70.1067 26.712 69.424 26.136C68.7413 25.56 68.4 24.6427 68.4 23.384V4.28H71.792V23.064C71.792 23.448 71.888 23.736 72.08 23.928C72.2933 24.12 72.592 24.216 72.976 24.216H74.32V27H72.112ZM80.888 27.384C79.1173 27.384 77.6987 26.9787 76.632 26.168C75.5867 25.3573 75.064 24.216 75.064 22.744C75.064 21.272 75.5013 20.1307 76.376 19.32C77.272 18.488 78.648 17.8907 80.504 17.528L86.36 16.408C86.36 15.0853 86.0507 14.104 85.432 13.464C84.8133 12.8027 83.896 12.472 82.68 12.472C81.592 12.472 80.7387 12.7173 80.12 13.208C79.5013 13.6773 79.0747 14.3813 78.84 15.32L75.352 15.096C75.672 13.3893 76.4613 12.0453 77.72 11.064C79 10.0827 80.6533 9.592 82.68 9.592C84.984 9.592 86.7333 10.2107 87.928 11.448C89.144 12.664 89.752 14.3813 89.752 16.6V23.224C89.752 23.6293 89.816 23.9173 89.944 24.088C90.0933 24.2373 90.328 24.312 90.648 24.312H91.256V27C91.1493 27.0213 90.9787 27.0427 90.744 27.064C90.5093 27.0853 90.264 27.096 90.008 27.096C89.2827 27.096 88.6533 26.9787 88.12 26.744C87.608 26.5093 87.224 26.1253 86.968 25.592C86.712 25.0373 86.584 24.3013 86.584 23.384L86.936 23.544C86.7653 24.2907 86.392 24.952 85.816 25.528C85.2613 26.104 84.5467 26.5627 83.672 26.904C82.8187 27.224 81.8907 27.384 80.888 27.384ZM81.432 24.696C82.456 24.696 83.3307 24.504 84.056 24.12C84.7813 23.7147 85.3467 23.16 85.752 22.456C86.1573 21.752 86.36 20.952 86.36 20.056V18.968L81.368 19.928C80.344 20.12 79.6187 20.4293 79.192 20.856C78.7867 21.2613 78.584 21.784 78.584 22.424C78.584 23.1493 78.8293 23.7147 79.32 24.12C79.832 24.504 80.536 24.696 81.432 24.696ZM96.3333 27C95.2239 27 94.3279 26.712 93.6453 26.136C92.9626 25.56 92.6213 24.6427 92.6213 23.384V4.28H96.0133V23.064C96.0133 23.448 96.1093 23.736 96.3013 23.928C96.5146 24.12 96.8133 24.216 97.1973 24.216H98.5413V27H96.3333ZM105.109 27.384C103.339 27.384 101.92 26.9787 100.853 26.168C99.8079 25.3573 99.2852 24.216 99.2852 22.744C99.2852 21.272 99.7226 20.1307 100.597 19.32C101.493 18.488 102.869 17.8907 104.725 17.528L110.581 16.408C110.581 15.0853 110.272 14.104 109.653 13.464C109.035 12.8027 108.117 12.472 106.901 12.472C105.813 12.472 104.96 12.7173 104.341 13.208C103.723 13.6773 103.296 14.3813 103.061 15.32L99.5732 15.096C99.8932 13.3893 100.683 12.0453 101.941 11.064C103.221 10.0827 104.875 9.592 106.901 9.592C109.205 9.592 110.955 10.2107 112.149 11.448C113.365 12.664 113.973 14.3813 113.973 16.6V23.224C113.973 23.6293 114.037 23.9173 114.165 24.088C114.315 24.2373 114.549 24.312 114.869 24.312H115.477V27C115.371 27.0213 115.2 27.0427 114.965 27.064C114.731 27.0853 114.485 27.096 114.229 27.096C113.504 27.096 112.875 26.9787 112.341 26.744C111.829 26.5093 111.445 26.1253 111.189 25.592C110.933 25.0373 110.805 24.3013 110.805 23.384L111.157 23.544C110.987 24.2907 110.613 24.952 110.037 25.528C109.483 26.104 108.768 26.5627 107.893 26.904C107.04 27.224 106.112 27.384 105.109 27.384ZM105.653 24.696C106.677 24.696 107.552 24.504 108.277 24.12C109.003 23.7147 109.568 23.16 109.973 22.456C110.379 21.752 110.581 20.952 110.581 20.056V18.968L105.589 19.928C104.565 20.12 103.84 20.4293 103.413 20.856C103.008 21.2613 102.805 21.784 102.805 22.424C102.805 23.1493 103.051 23.7147 103.541 24.12C104.053 24.504 104.757 24.696 105.653 24.696ZM116.905 27V4.28H120.297V13.816L119.881 13.752C120.073 12.792 120.425 12.0133 120.937 11.416C121.449 10.7973 122.078 10.3387 122.825 10.04C123.572 9.74133 124.393 9.592 125.289 9.592C126.526 9.592 127.572 9.86933 128.425 10.424C129.278 10.9573 129.918 11.7147 130.345 12.696C130.793 13.6773 131.017 14.7973 131.017 16.056V27H127.625V16.952C127.625 15.416 127.358 14.2853 126.825 13.56C126.313 12.8133 125.502 12.44 124.393 12.44C123.156 12.44 122.164 12.8347 121.417 13.624C120.67 14.392 120.297 15.5227 120.297 17.016V27H116.905ZM134.429 31.8V29.016H136.509C137.085 29.016 137.511 28.9307 137.789 28.76C138.066 28.5893 138.279 28.3013 138.429 27.896L138.973 26.488H137.917L131.773 9.976H135.357L140.029 23.352L144.477 9.976H148.093L141.309 28.984C140.967 29.9653 140.455 30.68 139.773 31.128C139.111 31.576 138.183 31.8 136.989 31.8H134.429ZM154.851 27.384C153.145 27.384 151.779 26.8187 150.755 25.688C149.753 24.536 149.251 22.9467 149.251 20.92V9.976H152.643V20.056C152.643 21.592 152.91 22.7227 153.443 23.448C153.977 24.1733 154.787 24.536 155.875 24.536C157.113 24.536 158.073 24.1413 158.755 23.352C159.459 22.5413 159.811 21.4107 159.811 19.96V9.976H163.203V27H160.035L159.971 22.552L160.451 22.744C160.153 24.2373 159.523 25.3893 158.563 26.2C157.603 26.9893 156.366 27.384 154.851 27.384ZM166.721 27V9.976H169.825L169.953 14.52L169.537 14.296C169.729 13.1867 170.092 12.2907 170.625 11.608C171.159 10.9253 171.809 10.424 172.577 10.104C173.345 9.76267 174.177 9.592 175.073 9.592C176.353 9.592 177.409 9.88 178.241 10.456C179.095 11.0107 179.735 11.7787 180.161 12.76C180.609 13.72 180.833 14.8187 180.833 16.056V27H177.441V17.08C177.441 16.0773 177.335 15.2347 177.121 14.552C176.908 13.8693 176.556 13.3467 176.065 12.984C175.575 12.6213 174.935 12.44 174.145 12.44C172.951 12.44 171.98 12.8347 171.233 13.624C170.487 14.4133 170.113 15.5653 170.113 17.08V27H166.721Z" fill="#231F1A"/>
<path d="M1 27.6808L15.2933 7.28075C15.9436 6.34913 16.8744 5.6495 17.95 5.28382C19.0257 4.91814 20.19 4.90551 21.2734 5.24777C22.3567 5.59004 23.3025 6.26931 23.9728 7.18661C24.6431 8.10391 25.003 9.2113 25 10.3474V14.3474C25 17.1764 23.8762 19.8895 21.8758 21.8899C19.8754 23.8903 17.1623 25.0141 14.3333 25.0141H2.86667M25 10.3474L27.6667 11.0141L25 11.6808M11.6667 25.0141V29.0141M17 24.6808V29.0141M7.66667 25.0141C9.31083 25.014 10.915 24.5073 12.261 23.563C13.6069 22.6187 14.6292 21.2827 15.1887 19.7366C15.7483 18.1906 15.8179 16.5098 15.3881 14.9228C14.9583 13.3358 14.0499 11.9198 12.7867 10.8674" stroke="#231F1A" stroke-width="1.6" stroke-linecap="round" stroke-linejoin="round"/>
<circle cx="20.6107" cy="9.98782" r="1.1" fill="#231F1A"/>
<path d="M31.2 28L34.2 21M31 19L28 26M39 19L36 26" stroke="#231F1A" stroke-width="1.4" stroke-linecap="round" stroke-linejoin="round"/>
<path d="M51 25.014V29.014M56 25.014L57.956 13.546M42 15.014L49.82 9.39899C50.1625 9.14869 50.5758 9.01379 51 9.01379C51.4242 9.01379 51.8375 9.14869 52.18 9.39899L60 15.014M43 25.014H59M46 25.014L44.044 13.546M53 17.014C53 18.1186 52.1046 19.014 51 19.014C49.8954 19.014 49 18.1186 49 17.014C49 15.9094 49.8954 15.014 51 15.014C52.1046 15.014 53 15.9094 53 17.014Z" stroke="#231F1A" stroke-width="1.6" stroke-linecap="round" stroke-linejoin="round"/>
</svg>
